<?xml version="1.0" encoding="UTF-8"?>
<svg id="Layer_2" data-name="Layer 2" xmlns="http://www.w3.org/2000/svg" viewBox="0 0 628.38 720.18">
  <defs>
    <style>
      .cls-1 {
        fill: #d7b78d;
      }

      .cls-2 {
        fill: #fff;
      }
    </style>
  </defs>
  <g id="Layer_1-2" data-name="Layer 1">
    <g>
      <path class="cls-1" d="M432.3,43.84h0c-8.33-2.03-16.73,3.08-18.76,11.41l-.98,4.02-148-36.05.98-4.02c2.03-8.33-3.08-16.73-11.41-18.76h0c-8.33-2.03-16.73,3.08-18.76,11.41l-27.3,112.08c-2.03,8.33,3.08,16.73,11.41,18.76h0c8.33,2.03,16.73-3.08,18.76-11.41l.98-4.02,58.31,14.2-69.8,248.05c-2.46,8.76,2.24,17.69,10.36,19.67l9.1,2.22,9.1,2.22c8.12,1.98,16.4-3.79,18.24-12.7l52.09-252.36,60.6,14.76-.98,4.02c-2.03,8.33,3.08,16.73,11.41,18.76h0c8.33,2.03,16.73-3.08,18.76-11.41l27.3-112.08c2.03-8.33-3.08-16.73-11.41-18.76Z"/>
      <path class="cls-2" d="M266.18,29.91l-22.23,91.26c-.21.88-1.1,1.42-1.99,1.21s-1.42-1.1-1.21-1.99l22.23-91.26c.21-.88,1.1-1.42,1.99-1.21s1.42,1.1,1.21,1.99Z"/>
      <path class="cls-2" d="M410.47,65.9l-22.23,91.26c-.21.88-1.1,1.42-1.99,1.21s-1.42-1.1-1.21-1.99l22.23-91.26c.21-.88,1.1-1.42,1.99-1.21s1.42,1.1,1.21,1.99Z"/>
    </g>
    <path class="cls-2" d="M208.09,211.82c35.43-3.95,143.86-8.35,248.81,66.02,54.75,38.8,97.12,92.52,124.31,153.87,24.68,55.67,52.49,140.96,46.28,233.41,0,0-8.09,54.84-56.62,54.84H64.01s-47.53,5.62-61.22-39.99c-6.06-20.19-1.99-42.09,9.77-59.59l172.78-257.22s-25.66-4.13-41.18-31.85c-18.07-32.29-11.27-73.64,16.17-98.47,4.61-4.17,9.94-8.08,16.09-11.45,9.76-5.34,20.61-8.32,31.67-9.55Z"/>
    <rect x="457.9" y="424.06" width="16.49" height="35.59" rx="8.25" ry="8.25" transform="translate(934.81 881.05) rotate(179.67)"/>
    <rect x="417.9" y="424.29" width="16.49" height="35.59" rx="8.25" ry="8.25" transform="translate(854.81 881.74) rotate(179.67)"/>
    <path d="M449.83,515.85c.66,0,1.33-.13,1.98-.39l42.15-16.68c2.16-.85,3.54-2.97,3.45-5.29-.09-2.32-1.63-4.33-3.84-5.01l-42.32-13.12c-2.89-.89-5.95.72-6.84,3.6-.89,2.88.72,5.95,3.6,6.84l27.5,8.53-27.72,10.97c-2.81,1.11-4.18,4.29-3.07,7.1.85,2.16,2.92,3.47,5.11,3.46Z"/>
  </g>
</svg>