<?xml version="1.0" encoding="UTF-8"?>
<svg id="Layer_2" data-name="Layer 2" xmlns="http://www.w3.org/2000/svg" xmlns:xlink="http://www.w3.org/1999/xlink" viewBox="0 0 257.95 215.43">
  <defs>
    <style>
      .cls-1 {
        fill: none;
      }

      .cls-2 {
        fill: url(#linear-gradient);
      }

      .cls-3 {
        fill: #f48163;
      }
    </style>
    <linearGradient id="linear-gradient" x1="63.66" y1="237.52" x2="228.69" y2="72.49" gradientUnits="userSpaceOnUse">
      <stop offset=".82" stop-color="#fff"/>
      <stop offset="1" stop-color="#f7a092"/>
    </linearGradient>
  </defs>
  <g id="Layer_1-2" data-name="Layer 1">
    <rect class="cls-1" width="257.95" height="215.43"/>
    <g>
      <path class="cls-3" d="M68.84,137.69c-4.74,4.74-12.42,4.74-17.16,0l-23.77-23.77c-10.18-10.18-10.18-26.68,0-36.86l.37-.37-3.64-3.64c-7.97-7.97-7.97-20.9,0-28.87,7.97-7.97,20.9-7.97,28.87,0l25.55,25.55c13.69,13.69,18.86,36.32,5.79,50.44"/>
      <path class="cls-2" d="M179.57,33.03c-12.71-1.42-51.62-2.99-89.28,23.69-19.65,13.92-34.85,33.2-44.61,55.21-8.86,19.98-18.84,50.58-16.61,83.75,0,0,2.9,19.68,20.32,19.68h181.87s17.05,2.02,21.97-14.35c2.18-7.25.71-15.1-3.51-21.38l-62-92.29s9.21-1.48,14.77-11.43c6.49-11.59,4.04-26.42-5.8-35.33-1.65-1.5-3.57-2.9-5.77-4.11-3.5-1.92-7.4-2.98-11.36-3.43Z"/>
      <rect x="83.97" y="109.49" width="5.92" height="12.77" rx="2.96" ry="2.96"/>
      <rect x="98.33" y="109.49" width="5.92" height="12.77" rx="2.96" ry="2.96"/>
      <path d="M92.94,142.4c-.24,0-.48-.04-.71-.13l-15.16-5.9c-.78-.3-1.28-1.06-1.25-1.89.03-.83.57-1.56,1.37-1.81l15.16-4.8c1.03-.33,2.14.25,2.46,1.28.33,1.03-.25,2.14-1.28,2.46l-9.85,3.12,9.97,3.88c1.01.39,1.51,1.53,1.12,2.54-.3.78-1.04,1.25-1.83,1.25Z"/>
      <path class="cls-3" d="M194.85,157.07c3.87,5.47,11.44,6.77,16.92,2.9l27.44-19.41c11.75-8.31,14.54-24.58,6.23-36.33l-.3-.43,4.2-2.97c9.2-6.51,11.39-19.25,4.88-28.45s-19.25-11.39-28.45-4.88l-29.49,20.86c-15.81,11.18-24.73,32.61-14.23,48.74"/>
    </g>
  </g>
</svg>