<?xml version="1.0" encoding="UTF-8"?>
<svg id="Layer_2" xmlns="http://www.w3.org/2000/svg" version="1.1" viewBox="0 0 209.5 209.4">
  <!-- Generator: Adobe Illustrator 29.1.0, SVG Export Plug-In . SVG Version: 2.1.0 Build 142)  -->
  <defs>
    <style>
      .st0 {
        fill: #ffc87a;
      }
    </style>
  </defs>
  <g id="Layer_1-2">
    <path class="st0" d="M104.7,209.4c-14.4,0-27.9-2.7-40.5-8.1s-23.8-13-33.4-22.6-17.1-20.7-22.6-33.4S0,119.1,0,104.7s2.7-28,8.1-40.6c5.4-12.6,13-23.7,22.6-33.4,9.6-9.6,20.8-17.1,33.4-22.6S90.3,0,104.7,0s28,2.7,40.7,8.1c12.7,5.4,23.8,13,33.4,22.6,9.6,9.6,17.1,20.7,22.6,33.4,5.5,12.6,8.2,26.2,8.2,40.6s-2.7,28-8.2,40.6-13,23.7-22.6,33.4-20.7,17.1-33.4,22.6-26.2,8.1-40.7,8.1h0ZM104.7,175.2c9.8,0,18.9-1.8,27.5-5.5,8.5-3.6,16-8.7,22.5-15.1s11.5-13.9,15.2-22.5,5.5-17.7,5.5-27.5-1.8-18.9-5.5-27.5c-3.7-8.5-8.7-16-15.2-22.5-6.5-6.5-13.9-11.5-22.5-15.1-8.5-3.6-17.7-5.5-27.5-5.5s-18.8,1.8-27.4,5.5c-8.5,3.6-16,8.7-22.5,15.2-6.5,6.5-11.5,13.9-15.2,22.5-3.6,8.5-5.5,17.7-5.5,27.5s1.8,18.9,5.5,27.5c3.6,8.5,8.7,16,15.2,22.5,6.5,6.5,14,11.5,22.5,15.1,8.5,3.6,17.7,5.5,27.4,5.5Z"/>
  </g>
</svg>