<?xml version="1.0" encoding="UTF-8"?>
<svg id="Layer_2" data-name="Layer 2" xmlns="http://www.w3.org/2000/svg" xmlns:xlink="http://www.w3.org/1999/xlink" viewBox="0 0 257.95 215.43">
  <defs>
    <style>
      .cls-1 {
        fill: none;
      }

      .cls-2 {
        fill: url(#linear-gradient);
      }

      .cls-3 {
        fill: #83c66c;
      }
    </style>
    <linearGradient id="linear-gradient" x1="643.89" y1="232.42" x2="763.05" y2="26.02" gradientTransform="translate(793.66) rotate(-180) scale(1 -1)" gradientUnits="userSpaceOnUse">
      <stop offset=".69" stop-color="#fff"/>
      <stop offset=".97" stop-color="#83c66c"/>
    </linearGradient>
  </defs>
  <g id="Layer_1-2" data-name="Layer 1">
    <rect class="cls-1" width="257.95" height="215.43"/>
    <g>
      <path class="cls-3" d="M157.78,121.9c0,6.75,5.47,12.22,12.22,12.22h33.84c14.49,0,26.23-11.75,26.23-26.23v-.53s5.18,0,5.18,0c11.35,0,20.55-9.2,20.55-20.55,0-11.35-9.2-20.55-20.55-20.55h-36.37c-19.49,0-39.28,12.43-40.02,31.78"/>
      <path class="cls-2" d="M5.16,181.65l62.61-94.31c-6.21-3.79-10.36-10.61-10.36-18.42,0-8.86,5.34-16.46,12.97-19.79-1.01-4.17-1.19-8.67-.29-13.32,2.63-13.51,14.15-23.83,27.88-24.96,16.37-1.34,30.35,10.01,33.18,25.29,15.03,5.6,98.81,42,96.59,156.68,0,0,.03,22.61-18.12,22.61H19.95s-24.09-1.58-19.32-23.38c.81-3.72,2.43-7.23,4.53-10.4Z"/>
      <rect x="151.82" y="92.14" width="5.96" height="12.85" rx="2.98" ry="2.98" transform="translate(309.6 197.13) rotate(-180)"/>
      <rect x="137.38" y="92.14" width="5.96" height="12.85" rx="2.98" ry="2.98" transform="translate(280.71 197.13) rotate(-180)"/>
      <path d="M148.76,125.25c.24,0,.48-.04.72-.13l15.26-5.94c.78-.3,1.28-1.07,1.26-1.9-.03-.84-.58-1.57-1.38-1.82l-15.26-4.83c-1.04-.33-2.15.25-2.48,1.29-.33,1.04.25,2.15,1.29,2.48l9.91,3.14-10.03,3.9c-1.02.4-1.52,1.54-1.12,2.56.3.78,1.05,1.26,1.84,1.26Z"/>
      <path class="cls-3" d="M89.88,113.18c5.83,3.4,7.8,10.88,4.4,16.71l-17.04,29.24c-7.3,12.52-23.36,16.75-35.88,9.46l-.46-.27-2.61,4.47c-5.71,9.81-18.29,13.12-28.1,7.41-9.81-5.71-13.12-18.29-7.41-28.1l18.31-31.42c9.81-16.84,30.51-27.68,47.61-18.58"/>
    </g>
  </g>
</svg>