<?xml version="1.0" encoding="UTF-8"?>
<svg id="Layer_2" data-name="Layer 2" xmlns="http://www.w3.org/2000/svg" viewBox="0 0 93.54 121.89">
  <defs>
    <style>
      .cls-1 {
        fill: none;
      }

      .cls-2 {
        fill: #fdeba3;
      }
    </style>
  </defs>
  <g id="Layer_1-2" data-name="Layer 1">
    <rect class="cls-1" x="0" width="93.54" height="121.89"/>
    <g>
      <path d="M93.54,46.92C93.54,21.09,72.6.15,46.77.15S0,21.09,0,46.92s19.34,45.12,43.77,46.67v25.15c0,1.66,1.34,3,3,3s3-1.34,3-3v-25.15c24.43-1.55,43.77-21.84,43.77-46.67Z"/>
      <path class="cls-2" d="M46.76,76.8c-4.03,0-7.81-.76-11.36-2.28s-6.67-3.63-9.36-6.32-4.8-5.81-6.32-9.35-2.28-7.33-2.28-11.37.76-7.84,2.28-11.37c1.52-3.54,3.63-6.65,6.32-9.35,2.69-2.69,5.81-4.8,9.36-6.32s7.33-2.28,11.36-2.28,7.84.76,11.39,2.28,6.66,3.63,9.35,6.32c2.69,2.7,4.79,5.81,6.33,9.35,1.53,3.54,2.3,7.33,2.3,11.37s-.77,7.84-2.3,11.37c-1.53,3.54-3.64,6.65-6.33,9.35s-5.8,4.8-9.35,6.32-7.34,2.28-11.39,2.28ZM46.76,67.24c2.74,0,5.3-.51,7.69-1.53,2.39-1.02,4.49-2.43,6.3-4.24s3.23-3.91,4.26-6.3c1.03-2.39,1.54-4.95,1.54-7.69s-.51-5.3-1.54-7.69c-1.03-2.39-2.45-4.49-4.26-6.3s-3.91-3.22-6.3-4.24c-2.39-1.02-4.95-1.53-7.69-1.53s-5.28.51-7.67,1.53c-2.39,1.02-4.49,2.43-6.31,4.24-1.82,1.81-3.24,3.91-4.26,6.3-1.02,2.39-1.53,4.96-1.53,7.69s.51,5.3,1.53,7.69c1.02,2.39,2.44,4.49,4.26,6.3,1.82,1.81,3.92,3.22,6.31,4.24,2.39,1.02,4.95,1.53,7.67,1.53Z"/>
    </g>
  </g>
</svg>