<?xml version="1.0" encoding="UTF-8"?>
<svg id="Layer_2" data-name="Layer 2" xmlns="http://www.w3.org/2000/svg" xmlns:xlink="http://www.w3.org/1999/xlink" viewBox="0 0 257.95 215.43">
  <defs>
    <style>
      .cls-1 {
        fill: none;
      }

      .cls-2 {
        fill: url(#linear-gradient);
      }

      .cls-3 {
        fill: #fec366;
      }
    </style>
    <linearGradient id="linear-gradient" x1="121.71" y1="242.49" x2="198.06" y2="32.72" gradientUnits="userSpaceOnUse">
      <stop offset=".78" stop-color="#fff"/>
      <stop offset=".81" stop-color="#fefbf6"/>
      <stop offset=".85" stop-color="#fef1dd"/>
      <stop offset=".91" stop-color="#fee2b6"/>
      <stop offset=".97" stop-color="#fecd7f"/>
      <stop offset="1" stop-color="#fec366"/>
    </linearGradient>
  </defs>
  <g id="Layer_1-2" data-name="Layer 1">
    <rect class="cls-1" width="257.95" height="215.43"/>
    <g>
      <path class="cls-3" d="M69.27,132.36c-4.72,4.72-12.37,4.72-17.09,0l-23.67-23.67c-10.13-10.13-10.13-26.56,0-36.7l.37-.37-3.62-3.62c-7.94-7.94-7.94-20.81,0-28.74,7.94-7.94,20.81-7.94,28.74,0l25.43,25.43c13.63,13.63,18.78,36.16,5.76,50.22"/>
      <path class="cls-2" d="M257.33,192.31c-.81-3.68-2.4-7.15-4.48-10.29l-62.14-93.62-15.77-24.94s0-.01,0-.02c.37-.06.73-.13,1.08-.2,6.65-1.41,11.76-6.72,13.45-13.31,3.81-14.86-7.57-21.5-7.58-21.5,0,0,0,0,0,0-12.99-7.25-23.14,3.18-23.37,3.41,0,0,0,0-.01-.01C142.14-3.96,114.34,14.79,114.33,14.8c0,0,0,0,0,0-17.92,13.85-11.24,28.57-7.76,34,0,0,0,.01,0,.01-29.49,17.84-75.5,59.36-73.85,144.25,0,0-.03,22.37,17.92,22.37h187.58s0,0,0,0c.01,0,23.83-1.57,19.11-23.12Z"/>
      <rect x="97.69" y="71.89" width="5.89" height="12.71" rx="2.95" ry="2.95"/>
      <rect x="111.98" y="71.89" width="5.89" height="12.71" rx="2.95" ry="2.95"/>
      <path d="M106.62,104.65c-.24,0-.48-.04-.71-.13l-15.09-5.87c-.77-.3-1.27-1.06-1.24-1.88.03-.83.57-1.55,1.36-1.8l15.09-4.77c1.03-.33,2.13.24,2.45,1.27.33,1.03-.24,2.13-1.27,2.45l-9.81,3.1,9.92,3.86c1.01.39,1.5,1.52,1.11,2.53-.3.77-1.04,1.25-1.82,1.25Z"/>
      <path class="cls-3" d="M194.73,151.66c3.85,5.45,11.39,6.74,16.84,2.89l27.32-19.33c11.7-8.28,14.47-24.47,6.2-36.17l-.3-.43,4.18-2.96c9.16-6.48,11.34-19.17,4.85-28.33-6.48-9.16-19.17-11.34-28.33-4.85l-29.36,20.77c-15.74,11.13-24.62,32.47-14.16,48.53"/>
    </g>
  </g>
</svg>