<?xml version="1.0" encoding="UTF-8"?>
<svg id="Layer_2" data-name="Layer 2" xmlns="http://www.w3.org/2000/svg" viewBox="0 0 172.71 172.72">
  <defs>
    <style>
      .cls-1 {
        fill: #f26b6c;
      }
    </style>
  </defs>
  <g id="Layer_1-2" data-name="Layer 1">
    <path class="cls-1" d="M4.5,168.21c-2.02-2.02-3.36-4.42-4.02-7.2s-.64-5.51.05-8.19,1.98-4.96,3.86-6.84l59.47-59.68L4.4,26.83c-1.88-1.88-3.15-4.17-3.81-6.88C-.08,17.23-.08,14.5.59,11.75s1.97-5.13,3.91-7.15C6.52,2.52,8.9,1.16,11.65.53,14.39-.09,17.12-.09,19.84.53c2.71.63,5.04,1.91,6.99,3.86l59.58,59.47L145.77,4.4c2.02-1.95,4.38-3.25,7.1-3.91,2.71-.66,5.41-.64,8.08.05,2.68.7,5.06,2.05,7.15,4.07,2.01,2.02,3.37,4.38,4.07,7.09.69,2.71.71,5.42.05,8.14-.66,2.71-1.97,5.04-3.91,6.99l-59.48,59.47,59.48,59.58c1.95,1.95,3.23,4.28,3.86,6.99.63,2.71.61,5.42-.05,8.14-.66,2.72-2,5.08-4.02,7.1-2.02,2.01-4.38,3.37-7.1,4.07-2.71.69-5.42.71-8.14.05-2.72-.66-5.08-1.97-7.1-3.91l-59.37-59.58-59.58,59.58c-1.95,1.95-4.26,3.25-6.94,3.91-2.68.66-5.39.66-8.14,0-2.75-.66-5.17-2-7.25-4.02Z"/>
  </g>
</svg>