<?xml version="1.0" encoding="UTF-8"?>
<svg id="Layer_2" xmlns="http://www.w3.org/2000/svg" xmlns:xlink="http://www.w3.org/1999/xlink" version="1.1" viewBox="0 0 113.4 113.4">
  <!-- Generator: Adobe Illustrator 29.1.0, SVG Export Plug-In . SVG Version: 2.1.0 Build 142)  -->
  <defs>
    <style>
      .st0 {
        fill: none;
      }

      .st1 {
        fill: #3685d9;
      }

      .st2 {
        fill: #fff;
      }

      .st3 {
        clip-path: url(#clippath);
      }
    </style>
    <clipPath id="clippath">
      <circle class="st0" cx="56.7" cy="56.7" r="56.7"/>
    </clipPath>
  </defs>
  <g id="Layer_1-2">
    <circle class="st1" cx="56.7" cy="56.7" r="56.7"/>
    <g class="st3">
      <g>
        <path class="st2" d="M117.9,105.6l-34.1-51.3c3.4-2.1,5.6-5.8,5.6-10s-2.9-9-7.1-10.8c.6-2.3.7-4.7.2-7.2-1.4-7.4-7.7-13-15.2-13.6-8.9-.7-16.5,5.4-18.1,13.8C41.2,29.4-4.4,49.2-3.2,111.6c0,0,0,12.3,9.9,12.3h103.2s13.1-.9,10.5-12.7c-.4-2-1.3-3.9-2.5-5.7h0Z"/>
        <rect x="34.9" y="56.8" width="3.2" height="7" rx="1.6" ry="1.6"/>
        <rect x="42.7" y="56.8" width="3.2" height="7" rx="1.6" ry="1.6"/>
        <path d="M39.8,74.9c-.1,0-.3,0-.4,0l-8.3-3.2c-.4-.2-.7-.6-.7-1,0-.5.3-.8.8-1l8.3-2.6c.6-.2,1.2.1,1.3.7s-.1,1.2-.7,1.3l-5.4,1.7,5.5,2.1c.5.2.8.8.6,1.4-.2.4-.6.7-1,.7h0Z"/>
      </g>
    </g>
  </g>
</svg>