<?xml version="1.0" encoding="UTF-8"?>
<svg id="Layer_2" data-name="Layer 2" xmlns="http://www.w3.org/2000/svg" xmlns:xlink="http://www.w3.org/1999/xlink" viewBox="0 0 221.1 195.59">
  <defs>
    <style>
      .cls-1 {
        fill: none;
      }

      .cls-2 {
        fill: url(#linear-gradient);
      }

      .cls-3 {
        fill: #f48163;
      }
    </style>
    <linearGradient id="linear-gradient" x1="54.77" y1="214.87" x2="198.8" y2="70.84" gradientUnits="userSpaceOnUse">
      <stop offset=".82" stop-color="#fff"/>
      <stop offset="1" stop-color="#f7a092"/>
    </linearGradient>
  </defs>
  <g id="Layer_1-2" data-name="Layer 1">
    <rect class="cls-1" width="221.1" height="195.59"/>
    <rect class="cls-1" x="22.68" y="36.85" width="198.43" height="158.74"/>
    <g>
      <path class="cls-3" d="M84.98,114.49c0,5.85-4.74,10.59-10.59,10.59h-29.34c-12.56,0-22.75-10.18-22.75-22.75v-.46s-4.49,0-4.49,0c-9.84,0-17.82-7.98-17.82-17.82s7.98-17.82,17.82-17.82h31.53c16.9,0,34.06,10.77,34.7,27.56"/>
      <g>
        <path class="cls-2" d="M155.94,36.39c-11.09-1.24-45.05-2.61-77.92,20.67-17.15,12.15-30.41,28.97-38.93,48.19-7.73,17.43-16.44,44.14-14.49,73.09,0,0,2.53,17.18,17.73,17.18h158.73s14.88,1.76,19.17-12.52c1.9-6.32.62-13.18-3.06-18.66l-54.11-80.55s8.03-1.29,12.89-9.97c5.66-10.11,3.53-23.06-5.06-30.84-1.44-1.31-3.11-2.53-5.04-3.59-3.06-1.67-6.45-2.61-9.92-2.99Z"/>
        <rect x="72.5" y="103.13" width="5.16" height="11.14" rx="2.26" ry="2.26"/>
        <rect x="85.03" y="103.13" width="5.16" height="11.14" rx="2.26" ry="2.26"/>
        <path d="M80.32,131.85c-.21,0-.42-.04-.62-.12l-13.23-5.15c-.68-.26-1.11-.93-1.09-1.65.02-.73.5-1.36,1.19-1.58l13.23-4.19c.9-.29,1.86.21,2.15,1.12.29.9-.21,1.86-1.12,2.15l-8.6,2.72,8.7,3.38c.88.34,1.32,1.34.97,2.22-.26.68-.91,1.09-1.6,1.09Z"/>
        <path class="cls-3" d="M163.69,94.26c-3.6-4.61-10.25-5.43-14.87-1.84l-23.13,18.04c-9.91,7.73-11.67,22.02-3.95,31.93l.28.36-3.54,2.76c-7.76,6.05-9.14,17.25-3.09,25.01s17.25,9.14,25.01,3.09l24.86-19.39c13.33-10.39,20.23-29.44,10.41-43.07"/>
      </g>
    </g>
  </g>
</svg>