<?xml version="1.0" encoding="UTF-8"?>
<svg id="Layer_2" data-name="Layer 2" xmlns="http://www.w3.org/2000/svg" viewBox="0 0 209.46 209.36">
  <defs>
    <style>
      .cls-1 {
        fill: #fdeba3;
      }
    </style>
  </defs>
  <g id="Layer_1-2" data-name="Layer 1">
    <path class="cls-1" d="M104.68,209.36c-14.38,0-27.89-2.72-40.55-8.15s-23.79-12.96-33.41-22.57-17.14-20.74-22.57-33.36S0,119.13,0,104.68s2.72-27.97,8.15-40.6c5.43-12.62,12.96-23.74,22.57-33.36,9.62-9.62,20.75-17.14,33.41-22.57S90.3,0,104.68,0s27.99,2.72,40.65,8.15,23.77,12.96,33.36,22.57c9.59,9.62,17.11,20.74,22.58,33.36,5.46,12.62,8.2,26.15,8.2,40.6s-2.73,27.98-8.2,40.6c-5.47,12.62-12.99,23.74-22.58,33.36-9.59,9.62-20.71,17.14-33.36,22.57s-26.2,8.15-40.65,8.15ZM104.68,175.23c9.78,0,18.94-1.82,27.47-5.46,8.53-3.64,16.02-8.69,22.48-15.15,6.46-6.46,11.52-13.95,15.19-22.48,3.67-8.53,5.51-17.68,5.51-27.47s-1.84-18.93-5.51-27.46c-3.68-8.53-8.74-16.02-15.19-22.48-6.46-6.46-13.95-11.5-22.48-15.15-8.53-3.64-17.68-5.47-27.47-5.47s-18.83,1.82-27.37,5.47c-8.53,3.64-16.04,8.69-22.53,15.15-6.49,6.46-11.55,13.95-15.19,22.48-3.64,8.53-5.47,17.69-5.47,27.46s1.82,18.94,5.47,27.47c3.64,8.53,8.71,16.02,15.19,22.48,6.48,6.46,14,11.5,22.53,15.15,8.53,3.64,17.66,5.46,27.37,5.46Z"/>
  </g>
</svg>