<?xml version="1.0" encoding="UTF-8"?>
<svg id="Layer_2" data-name="Layer 2" xmlns="http://www.w3.org/2000/svg" xmlns:xlink="http://www.w3.org/1999/xlink" viewBox="0 0 113.39 113.39">
  <defs>
    <style>
      .cls-1 {
        fill: none;
      }

      .cls-2 {
        fill: #3a73ba;
      }

      .cls-3 {
        fill: #fff;
      }

      .cls-4 {
        clip-path: url(#clippath);
      }
    </style>
    <clipPath id="clippath">
      <circle class="cls-1" cx="56.69" cy="56.69" r="56.69"/>
    </clipPath>
  </defs>
  <g id="Layer_1-2" data-name="Layer 1">
    <circle class="cls-2" cx="56.69" cy="56.69" r="56.69"/>
    <g class="cls-4">
      <g>
        <path class="cls-3" d="M117.92,105.55l-34.07-51.33c3.38-2.06,5.64-5.77,5.64-10.02,0-4.82-2.9-8.96-7.06-10.77.55-2.27.65-4.72.16-7.25-1.43-7.35-7.7-12.97-15.17-13.58-8.91-.73-16.52,5.45-18.06,13.76C41.19,29.41-4.41,49.22-3.2,111.63c0,0-.02,12.31,9.86,12.31h103.21s13.11-.86,10.52-12.72c-.44-2.03-1.32-3.93-2.47-5.66Z"/>
        <rect x="34.87" y="56.83" width="3.24" height="7" rx="1.62" ry="1.62"/>
        <rect x="42.73" y="56.83" width="3.24" height="7" rx="1.62" ry="1.62"/>
        <path d="M39.78,74.86c-.13,0-.26-.02-.39-.07l-8.3-3.23c-.42-.17-.7-.58-.68-1.04.01-.46.31-.85.75-.99l8.3-2.63c.57-.18,1.17.13,1.35.7.18.57-.13,1.17-.7,1.35l-5.39,1.71,5.46,2.12c.55.22.83.84.61,1.39-.17.43-.57.69-1,.69Z"/>
      </g>
    </g>
  </g>
</svg>