<?xml version="1.0" encoding="UTF-8"?>
<svg id="Layer_2" data-name="Layer 2" xmlns="http://www.w3.org/2000/svg" viewBox="0 0 69.58 116.67">
  <defs>
    <style>
      .cls-1 {
        fill: #3a73ba;
      }
    </style>
  </defs>
  <g id="Layer_1-2" data-name="Layer 1">
    <path class="cls-1" d="M60.21,0c2.68,0,4.91.88,6.69,2.65,1.78,1.77,2.67,4.06,2.67,6.89,0,1.41-.19,2.91-.57,4.48-.38,1.58-.97,3.29-1.77,5.15l-20.68,48.42c-1.47,3.47-3.07,6.21-4.79,8.19-1.72,1.99-4.06,2.98-7,2.98s-5.25-1.02-7-3.07c-1.75-2.05-3.35-4.75-4.79-8.11L2.34,19.17c-.8-1.86-1.38-3.57-1.77-5.15-.38-1.58-.57-3.07-.57-4.48,0-2.83.88-5.12,2.65-6.89C4.42.88,6.64,0,9.32,0c1.68,0,3.37.46,5.08,1.39s3.33,2.19,4.86,3.78l14.49,14.53c.32.41.66.62,1.02.62s.71-.21,1.06-.62l14.45-14.53c1.56-1.59,3.2-2.85,4.9-3.78s3.39-1.39,5.04-1.39ZM34.77,86.99c2,0,3.62.61,4.84,1.83,1.22,1.22,1.83,2.83,1.83,4.84v16.39c0,2-.61,3.61-1.83,4.82-1.22,1.21-2.83,1.81-4.84,1.81s-3.57-.6-4.79-1.81c-1.22-1.21-1.83-2.81-1.83-4.82v-16.39c0-2,.61-3.62,1.83-4.84s2.82-1.83,4.79-1.83Z"/>
  </g>
</svg>