<?xml version="1.0" encoding="UTF-8"?>
<svg id="Layer_2" data-name="Layer 2" xmlns="http://www.w3.org/2000/svg" xmlns:xlink="http://www.w3.org/1999/xlink" viewBox="0 0 470.55 498.9">
  <defs>
    <style>
      .cls-1, .cls-2 {
        fill: none;
      }

      .cls-3 {
        fill: #e0e0df;
      }

      .cls-4 {
        fill: url(#linear-gradient);
      }

      .cls-5 {
        fill: #83c66c;
      }

      .cls-6 {
        fill: #3d3d3d;
      }

      .cls-2 {
        stroke: #fff;
        stroke-linecap: round;
        stroke-miterlimit: 10;
      }
    </style>
    <linearGradient id="linear-gradient" x1="193.35" y1="393.8" x2="377.25" y2="75.27" gradientUnits="userSpaceOnUse">
      <stop offset=".69" stop-color="#fff"/>
      <stop offset=".97" stop-color="#83c66c"/>
    </linearGradient>
  </defs>
  <g id="Layer_1-2" data-name="Layer 1">
    <rect class="cls-1" width="470.55" height="498.9"/>
    <g>
      <ellipse class="cls-3" cx="232.4" cy="450.24" rx="171.59" ry="24.58"/>
      <path class="cls-6" d="M242.63,344.43v85.12s-3.14,16.08,14.91,16.08h105.91c.69.09,5.24.57,8.77-2.72.02-.02.04-.04.06-.06,2.19-2.08,3.11-5.15,2.83-8.16-1.15-12.43-5.84-19.41-8.85-22.92-16.04-18.7-53.96-19.94-91.68,1.65l.32-69h-32.28Z"/>
      <path class="cls-2" d="M274.59,413.43s-4.89,1.4-13.8,8.16"/>
      <path class="cls-6" d="M233.49,344.43v85.12s3.14,16.08-14.91,16.08h-105.91c-.69.09-5.24.57-8.77-2.72-.02-.02-.04-.04-.06-.06-2.19-2.08-3.11-5.15-2.83-8.16,1.15-12.43,5.84-19.41,8.85-22.92,16.04-18.7,53.96-19.94,91.68,1.65l-.32-69h32.28Z"/>
      <path class="cls-2" d="M201.53,413.43s4.89,1.4,13.8,8.16"/>
      <path class="cls-5" d="M180.99,223.23c0,10.41-8.44,18.85-18.85,18.85h-52.22c-22.36,0-40.49-18.13-40.49-40.49v-.82s-7.99,0-7.99,0c-17.51,0-31.71-14.2-31.71-31.71,0-17.51,14.2-31.71,31.71-31.71h56.12c30.08,0,60.62,19.18,61.77,49.05"/>
      <path class="cls-4" d="M416.52,315.45l-96.62-145.55c9.58-5.85,15.99-16.37,15.99-28.42,0-13.67-8.24-25.4-20.01-30.54,1.55-6.44,1.84-13.38.44-20.56-4.07-20.85-21.84-36.78-43.02-38.52-25.27-2.07-46.85,15.45-51.21,39.02-23.19,8.64-152.5,64.82-149.06,241.8,0,0-.05,34.9,27.97,34.9h292.69s37.18-2.44,29.82-36.08c-1.26-5.75-3.74-11.15-7-16.05Z"/>
      <rect x="180.99" y="177.3" width="9.19" height="19.84" rx="4.6" ry="4.6"/>
      <rect x="203.28" y="177.3" width="9.19" height="19.84" rx="4.6" ry="4.6"/>
      <path d="M194.91,228.41c-.37,0-.74-.07-1.11-.21l-23.55-9.16c-1.2-.47-1.98-1.65-1.94-2.94.04-1.29.89-2.42,2.13-2.81l23.55-7.45c1.61-.51,3.32.38,3.82,1.99.51,1.61-.38,3.32-1.99,3.83l-15.3,4.84,15.49,6.02c1.57.61,2.35,2.38,1.73,3.95-.47,1.21-1.62,1.94-2.84,1.94Z"/>
      <path class="cls-5" d="M289.57,275.6c0,10.41,8.44,18.85,18.85,18.85h52.22c22.36,0,40.49-18.13,40.49-40.49v-.82s7.99,0,7.99,0c17.51,0,31.71-14.2,31.71-31.71,0-17.51-14.2-31.71-31.71-31.71h-56.12c-30.08,0-60.62,19.18-61.77,49.05"/>
    </g>
  </g>
</svg>