<?xml version="1.0" encoding="UTF-8"?>
<svg id="Layer_2" data-name="Layer 2" xmlns="http://www.w3.org/2000/svg" xmlns:xlink="http://www.w3.org/1999/xlink" viewBox="0 0 257.95 215.43">
  <defs>
    <style>
      .cls-1 {
        fill: none;
      }

      .cls-2 {
        fill: url(#linear-gradient);
      }

      .cls-3 {
        fill: #f48163;
      }
    </style>
    <linearGradient id="linear-gradient" x1="67.37" y1="237.52" x2="232.4" y2="72.49" gradientUnits="userSpaceOnUse">
      <stop offset=".82" stop-color="#fff"/>
      <stop offset="1" stop-color="#f7a092"/>
    </linearGradient>
  </defs>
  <g id="Layer_1-2" data-name="Layer 1">
    <rect class="cls-1" width="257.95" height="215.43"/>
    <g>
      <path class="cls-3" d="M107.31,82.89c6.23,2.48,9.27,9.54,6.79,15.76l-12.43,31.23c-5.32,13.37-20.48,19.9-33.85,14.58l-.49-.2-1.9,4.78c-4.17,10.48-16.04,15.59-26.51,11.42-10.48-4.17-15.59-16.04-11.42-26.51l13.36-33.57c7.16-17.99,25.9-31.69,44.04-25.27"/>
      <path class="cls-2" d="M183.29,33.03c-12.71-1.42-51.62-2.99-89.28,23.69-19.65,13.92-34.85,33.2-44.61,55.21-8.86,19.98-18.84,50.58-16.61,83.75,0,0,2.9,19.68,20.32,19.68h181.87s17.05,2.02,21.97-14.35c2.18-7.25.71-15.1-3.51-21.38l-62-92.29s9.21-1.48,14.77-11.43c6.49-11.59,4.04-26.42-5.8-35.33-1.65-1.5-3.57-2.9-5.77-4.11-3.5-1.92-7.4-2.98-11.36-3.43Z"/>
      <rect x="87.69" y="109.49" width="5.92" height="12.77" rx="2.96" ry="2.96"/>
      <rect x="102.04" y="109.49" width="5.92" height="12.77" rx="2.96" ry="2.96"/>
      <path d="M96.65,142.4c-.24,0-.48-.04-.71-.13l-15.16-5.9c-.78-.3-1.28-1.06-1.25-1.89.03-.83.57-1.56,1.37-1.81l15.16-4.8c1.03-.33,2.14.25,2.46,1.28.33,1.03-.25,2.14-1.28,2.46l-9.85,3.12,9.97,3.88c1.01.39,1.51,1.53,1.12,2.54-.3.78-1.04,1.25-1.83,1.25Z"/>
      <path class="cls-3" d="M192.17,99.33c-4.12-5.28-11.75-6.23-17.03-2.11l-26.51,20.67c-11.35,8.85-13.37,25.23-4.52,36.58l.32.42-4.05,3.16c-8.89,6.93-10.48,19.76-3.54,28.65,6.93,8.89,19.76,10.48,28.65,3.54l28.49-22.22c15.27-11.91,23.18-33.73,11.93-49.35"/>
    </g>
  </g>
</svg>