<?xml version="1.0" encoding="UTF-8"?>
<svg id="Layer_2" data-name="Layer 2" xmlns="http://www.w3.org/2000/svg" xmlns:xlink="http://www.w3.org/1999/xlink" viewBox="0 0 470.55 498.9">
  <defs>
    <style>
      .cls-1, .cls-2 {
        fill: none;
      }

      .cls-3 {
        fill: #e0e0df;
      }

      .cls-4 {
        fill: url(#linear-gradient);
      }

      .cls-5 {
        fill: #fec366;
      }

      .cls-6 {
        fill: #3d3d3d;
      }

      .cls-2 {
        stroke: #fff;
        stroke-linecap: round;
        stroke-miterlimit: 10;
      }
    </style>
    <linearGradient id="linear-gradient" x1="208.86" y1="408.99" x2="328" y2="81.66" gradientUnits="userSpaceOnUse">
      <stop offset=".78" stop-color="#fff"/>
      <stop offset=".81" stop-color="#fefbf6"/>
      <stop offset=".85" stop-color="#fef1dd"/>
      <stop offset=".91" stop-color="#fee2b6"/>
      <stop offset=".97" stop-color="#fecd7f"/>
      <stop offset="1" stop-color="#fec366"/>
    </linearGradient>
  </defs>
  <g id="Layer_1-2" data-name="Layer 1">
    <rect class="cls-1" width="470.55" height="498.9"/>
    <g>
      <ellipse class="cls-3" cx="228.73" cy="450.24" rx="171.59" ry="24.58"/>
      <path class="cls-6" d="M238.96,344.43v85.12s-3.14,16.08,14.91,16.08h105.91c.69.09,5.24.57,8.77-2.72.02-.02.04-.04.06-.06,2.19-2.08,3.11-5.15,2.83-8.16-1.15-12.43-5.84-19.41-8.85-22.92-16.04-18.7-53.96-19.94-91.68,1.65l.32-69h-32.28Z"/>
      <path class="cls-2" d="M270.92,413.43s-4.89,1.4-13.8,8.16"/>
      <path class="cls-6" d="M229.81,344.43v85.12s3.14,16.08-14.91,16.08h-105.91c-.69.09-5.24.57-8.77-2.72-.02-.02-.04-.04-.06-.06-2.19-2.08-3.11-5.15-2.83-8.16,1.15-12.43,5.84-19.41,8.85-22.92,16.04-18.7,53.96-19.94,91.68,1.65l-.32-69h32.28Z"/>
      <path class="cls-2" d="M197.85,413.43s4.89,1.4,13.8,8.16"/>
      <path class="cls-5" d="M127.04,237.14c-7.36,7.36-19.3,7.36-26.66,0l-36.93-36.93c-15.81-15.81-15.81-41.45,0-57.26l.58-.58-5.65-5.65c-12.38-12.38-12.38-32.46,0-44.85s32.46-12.38,44.85,0l39.69,39.69c21.27,21.27,29.3,56.42,8.99,78.36"/>
      <path class="cls-4" d="M420.49,330.69c-1.26-5.75-3.74-11.15-7-16.05l-96.97-146.07-24.61-38.91s0-.02.01-.02c.58-.09,1.14-.2,1.68-.31,10.38-2.2,18.34-10.49,20.98-20.77,5.95-23.18-11.81-33.55-11.82-33.55,0,0,0,0,0,0-20.27-11.32-36.11,4.96-36.46,5.32,0,0-.01,0-.02-.02-25.55-55.86-68.92-26.61-68.94-26.6,0,0,0,0,0,0-27.97,21.61-17.53,44.58-12.11,53.06,0,0,0,.02,0,.02-46.01,27.84-117.81,92.62-115.23,225.09,0,0-.05,34.9,27.97,34.9h292.69s0,0,0,0c.02,0,37.18-2.44,29.82-36.08Z"/>
      <rect x="171.39" y="142.79" width="9.19" height="19.84" rx="4.6" ry="4.6"/>
      <rect x="193.68" y="142.79" width="9.19" height="19.84" rx="4.6" ry="4.6"/>
      <path d="M185.31,193.9c-.37,0-.74-.07-1.11-.21l-23.55-9.16c-1.2-.47-1.98-1.65-1.94-2.94.04-1.29.89-2.42,2.13-2.81l23.55-7.45c1.61-.51,3.32.38,3.82,1.99.51,1.61-.38,3.32-1.99,3.83l-15.3,4.84,15.49,6.02c1.57.61,2.35,2.38,1.73,3.95-.47,1.21-1.62,1.94-2.84,1.94Z"/>
      <path class="cls-5" d="M322.8,266.62c6.01,8.5,17.78,10.52,26.28,4.5l42.63-30.16c18.25-12.91,22.58-38.18,9.67-56.44l-.47-.67,6.52-4.61c14.3-10.11,17.69-29.91,7.57-44.2-10.11-14.3-29.91-17.69-44.2-7.57l-45.82,32.41c-24.56,17.37-38.41,50.66-22.1,75.72"/>
    </g>
  </g>
</svg>