<?xml version="1.0" encoding="UTF-8"?>
<svg id="Layer_2" data-name="Layer 2" xmlns="http://www.w3.org/2000/svg" xmlns:xlink="http://www.w3.org/1999/xlink" viewBox="0 0 257.95 215.43">
  <defs>
    <style>
      .cls-1 {
        fill: none;
      }

      .cls-2 {
        fill: url(#linear-gradient);
      }

      .cls-3 {
        fill: #fec366;
      }
    </style>
    <linearGradient id="linear-gradient" x1="-313.7" y1="242.69" x2="-236.81" y2="31.43" gradientTransform="translate(434.45)" gradientUnits="userSpaceOnUse">
      <stop offset=".78" stop-color="#fff"/>
      <stop offset=".81" stop-color="#fefbf6"/>
      <stop offset=".85" stop-color="#fef1dd"/>
      <stop offset=".91" stop-color="#fee2b6"/>
      <stop offset=".97" stop-color="#fecd7f"/>
      <stop offset="1" stop-color="#fec366"/>
    </linearGradient>
  </defs>
  <g id="Layer_1-2" data-name="Layer 1">
    <rect class="cls-1" width="257.95" height="215.43"/>
    <g>
      <path class="cls-3" d="M76.09,132.88c-4.33,5.14-12.01,5.79-17.15,1.46l-25.77-21.72c-11.03-9.3-12.44-25.79-3.13-36.82l.34-.4-3.94-3.32c-8.64-7.29-9.74-20.2-2.45-28.84,7.29-8.64,20.2-9.74,28.84-2.45l27.69,23.35c14.84,12.51,21.93,34.68,10.07,49.9"/>
      <path class="cls-2" d="M257.33,192.15c-.81-3.71-2.42-7.2-4.52-10.36l-62.58-94.27-15.88-25.11s0-.01,0-.02c.37-.06.73-.13,1.09-.2,6.7-1.42,11.84-6.77,13.54-13.4,3.84-14.96-7.62-21.65-7.63-21.65,0,0,0,0,0,0-13.08-7.31-23.31,3.2-23.53,3.43,0,0,0,0-.01-.01-16.49-36.05-44.48-17.17-44.49-17.17,0,0,0,0,0,0-18.05,13.95-11.31,28.77-7.81,34.24,0,0,0,.01,0,.01-29.69,17.97-76.03,59.77-74.37,145.27,0,0-.03,22.52,18.05,22.52h188.9s0,0,0,0c.01,0,24-1.58,19.25-23.29Z"/>
      <rect x="96.56" y="70.88" width="5.93" height="12.8" rx="2.97" ry="2.97"/>
      <rect x="110.95" y="70.88" width="5.93" height="12.8" rx="2.97" ry="2.97"/>
      <path d="M105.55,103.87c-.24,0-.48-.04-.71-.13l-15.2-5.91c-.78-.3-1.28-1.06-1.25-1.9.03-.83.58-1.56,1.37-1.81l15.2-4.81c1.04-.33,2.14.25,2.47,1.28.33,1.04-.25,2.14-1.28,2.47l-9.87,3.12,9.99,3.89c1.01.39,1.51,1.53,1.12,2.55-.3.78-1.04,1.25-1.83,1.25Z"/>
      <path class="cls-3" d="M193.33,117.99c0-6.72-5.45-12.17-12.17-12.17h-33.7c-14.43,0-26.13,11.7-26.13,26.13v.53s-5.15,0-5.15,0c-11.3,0-20.47,9.16-20.47,20.47,0,11.3,9.16,20.47,20.47,20.47h36.22c19.41,0,39.12-12.38,39.87-31.66"/>
    </g>
  </g>
</svg>