<?xml version="1.0" encoding="UTF-8"?>
<svg id="Layer_2" data-name="Layer 2" xmlns="http://www.w3.org/2000/svg" viewBox="0 0 93.54 121.89">
  <defs>
    <style>
      .cls-1 {
        fill: none;
      }

      .cls-2 {
        fill: #f26b6c;
      }
    </style>
  </defs>
  <g id="Layer_1-2" data-name="Layer 1">
    <rect class="cls-1" x="0" width="93.54" height="121.89"/>
    <g>
      <path d="M93.54,46.92C93.54,21.09,72.6.15,46.77.15S0,21.09,0,46.92s19.34,45.12,43.77,46.67v25.15c0,1.66,1.34,3,3,3s3-1.34,3-3v-25.15c24.43-1.55,43.77-21.84,43.77-46.67Z"/>
      <path class="cls-2" d="M23.84,69.27c-.57-.57-.94-1.24-1.13-2.02s-.18-1.54.01-2.29.56-1.39,1.08-1.92l16.66-16.72-16.66-16.66c-.53-.53-.88-1.17-1.07-1.93-.19-.76-.19-1.53,0-2.29s.55-1.44,1.1-2c.56-.58,1.23-.96,2-1.14.77-.17,1.53-.17,2.29,0,.76.18,1.41.54,1.96,1.08l16.69,16.66,16.63-16.66c.57-.55,1.23-.91,1.99-1.1.76-.18,1.51-.18,2.26.01.75.2,1.42.58,2,1.14.56.57.94,1.23,1.14,1.99.19.76.2,1.52.01,2.28-.19.76-.55,1.41-1.1,1.96l-16.66,16.66,16.66,16.69c.54.55.91,1.2,1.08,1.96.18.76.17,1.52-.01,2.28-.19.76-.56,1.42-1.12,1.99-.57.56-1.23.94-1.99,1.14-.76.19-1.52.2-2.28.01-.76-.19-1.42-.55-1.99-1.1l-16.63-16.69-16.69,16.69c-.55.54-1.19.91-1.94,1.1-.75.18-1.51.18-2.28,0-.77-.19-1.45-.56-2.03-1.12Z"/>
    </g>
  </g>
</svg>