<?xml version="1.0" encoding="UTF-8"?>
<svg id="Layer_2" data-name="Layer 2" xmlns="http://www.w3.org/2000/svg" xmlns:xlink="http://www.w3.org/1999/xlink" viewBox="0 0 221.1 195.59">
  <defs>
    <style>
      .cls-1 {
        fill: none;
      }

      .cls-2 {
        fill: url(#linear-gradient);
      }

      .cls-3 {
        fill: #83c66c;
      }
    </style>
    <linearGradient id="linear-gradient" x1="91.65" y1="210.27" x2="194.65" y2="31.87" gradientUnits="userSpaceOnUse">
      <stop offset=".69" stop-color="#fff"/>
      <stop offset=".97" stop-color="#83c66c"/>
    </linearGradient>
  </defs>
  <g id="Layer_1-2" data-name="Layer 1">
    <rect class="cls-1" width="221.1" height="195.59"/>
    <g>
      <path class="cls-3" d="M84.72,114.74c0,5.83-4.73,10.56-10.56,10.56h-29.25c-12.52,0-22.68-10.15-22.68-22.68v-.46s-4.47,0-4.47,0c-9.81,0-17.76-7.95-17.76-17.76,0-9.81,7.95-17.76,17.76-17.76h31.43c16.85,0,33.95,10.74,34.6,27.47"/>
      <path class="cls-2" d="M216.64,166.39l-54.12-81.52c5.36-3.28,8.96-9.17,8.96-15.92,0-7.65-4.61-14.22-11.21-17.1.87-3.61,1.03-7.49.25-11.52-2.28-11.68-12.23-20.6-24.09-21.57-14.15-1.16-26.24,8.66-28.68,21.86-12.99,4.84-85.41,36.31-83.49,135.43,0,0-.03,19.55,15.66,19.55h163.93s20.83-1.36,16.7-20.21c-.7-3.22-2.1-6.25-3.92-8.99Z"/>
      <rect x="84.72" y="89.01" width="5.15" height="11.11" rx="2.26" ry="2.26"/>
      <rect x="97.21" y="89.01" width="5.15" height="11.11" rx="2.26" ry="2.26"/>
      <path d="M92.52,117.64c-.21,0-.42-.04-.62-.12l-13.19-5.13c-.67-.26-1.11-.92-1.09-1.65.02-.72.5-1.35,1.19-1.57l13.19-4.17c.9-.28,1.86.21,2.14,1.11.28.9-.21,1.86-1.11,2.14l-8.57,2.71,8.67,3.37c.88.34,1.31,1.33.97,2.21-.26.68-.91,1.09-1.59,1.09Z"/>
      <path class="cls-3" d="M143.41,107.2c-5.04,2.94-6.74,9.4-3.81,14.44l14.73,25.27c6.31,10.82,20.19,14.48,31.01,8.18l.4-.23,2.25,3.87c4.94,8.48,15.81,11.34,24.29,6.4,8.48-4.94,11.34-15.81,6.4-24.29l-15.83-27.16c-8.48-14.56-26.37-23.93-41.16-16.06"/>
    </g>
  </g>
</svg>