<?xml version="1.0" encoding="UTF-8"?>
<svg id="Layer_2" data-name="Layer 2" xmlns="http://www.w3.org/2000/svg" xmlns:xlink="http://www.w3.org/1999/xlink" viewBox="0 0 470.55 498.9">
  <defs>
    <style>
      .cls-1, .cls-2 {
        fill: none;
      }

      .cls-3 {
        fill: #e0e0df;
      }

      .cls-4 {
        fill: url(#linear-gradient);
      }

      .cls-5 {
        fill: #f48163;
      }

      .cls-6 {
        fill: #3d3d3d;
      }

      .cls-2 {
        stroke: #fff;
        stroke-linecap: round;
        stroke-miterlimit: 10;
      }
    </style>
    <linearGradient id="linear-gradient" x1="135.63" y1="402.73" x2="392" y2="146.36" gradientUnits="userSpaceOnUse">
      <stop offset=".82" stop-color="#fff"/>
      <stop offset="1" stop-color="#f7a092"/>
    </linearGradient>
  </defs>
  <g id="Layer_1-2" data-name="Layer 1">
    <rect class="cls-1" width="470.55" height="498.9"/>
    <g>
      <ellipse class="cls-3" cx="241.54" cy="450.24" rx="171.59" ry="24.58"/>
      <path class="cls-6" d="M251.76,344.43v85.12s-3.14,16.08,14.91,16.08h105.91c.69.09,5.24.57,8.77-2.72.02-.02.04-.04.06-.06,2.19-2.08,3.11-5.15,2.83-8.16-1.15-12.43-5.84-19.41-8.85-22.92-16.04-18.7-53.96-19.94-91.68,1.65l.32-69h-32.28Z"/>
      <path class="cls-2" d="M283.72,413.43s-4.89,1.4-13.8,8.16"/>
      <path class="cls-6" d="M242.62,344.43v85.12s3.14,16.08-14.91,16.08h-105.91c-.69.09-5.24.57-8.77-2.72-.02-.02-.04-.04-.06-.06-2.19-2.08-3.11-5.15-2.83-8.16,1.15-12.43,5.84-19.41,8.85-22.92,16.04-18.7,53.96-19.94,91.68,1.65l-.32-69h32.28Z"/>
      <path class="cls-2" d="M210.66,413.43s4.89,1.4,13.8,8.16"/>
      <path class="cls-5" d="M190.12,223.23c0,10.41-8.44,18.85-18.85,18.85h-52.22c-22.36,0-40.49-18.13-40.49-40.49v-.82s-7.99,0-7.99,0c-17.51,0-31.71-14.2-31.71-31.71s14.2-31.71,31.71-31.71h56.12c30.08,0,60.62,19.18,61.77,49.05"/>
      <path class="cls-4" d="M315.7,85.04c-19.75-2.2-80.19-4.65-138.69,36.8-30.52,21.63-54.13,51.57-69.3,85.77-13.76,31.03-29.26,78.57-25.8,130.11,0,0,4.51,30.57,31.56,30.57h282.54s26.49,3.13,34.13-22.29c3.38-11.26,1.11-23.46-5.45-33.22l-96.31-143.38s14.3-2.3,22.95-17.75c10.08-18,6.28-41.05-9.01-54.89-2.57-2.33-5.54-4.51-8.97-6.38-5.44-2.98-11.49-4.64-17.65-5.32Z"/>
      <rect x="167.19" y="203.84" width="9.19" height="19.84" rx="4.6" ry="4.6"/>
      <rect x="189.48" y="203.84" width="9.19" height="19.84" rx="4.6" ry="4.6"/>
      <path d="M181.11,254.95c-.37,0-.74-.07-1.11-.21l-23.55-9.16c-1.2-.47-1.98-1.65-1.94-2.94.04-1.29.89-2.42,2.13-2.81l23.55-7.45c1.61-.51,3.32.38,3.82,1.99.51,1.61-.38,3.32-1.99,3.83l-15.3,4.84,15.49,6.02c1.57.61,2.35,2.38,1.73,3.95-.47,1.21-1.62,1.94-2.84,1.94Z"/>
      <path class="cls-5" d="M329.5,188.04c-6.4-8.21-18.25-9.67-26.46-3.27l-41.18,32.12c-17.63,13.75-20.78,39.19-7.02,56.83l.5.65-6.3,4.91c-13.81,10.77-16.27,30.7-5.5,44.51s30.7,16.27,44.51,5.5l44.25-34.52c23.72-18.5,36-52.4,18.54-76.67"/>
    </g>
  </g>
</svg>