<?xml version="1.0" encoding="UTF-8"?>
<svg id="Layer_2" data-name="Layer 2" xmlns="http://www.w3.org/2000/svg" xmlns:xlink="http://www.w3.org/1999/xlink" viewBox="0 0 257.95 215.43">
  <defs>
    <style>
      .cls-1 {
        fill: none;
      }

      .cls-2 {
        fill: url(#linear-gradient);
      }

      .cls-3 {
        fill: #83c66c;
      }
    </style>
    <linearGradient id="linear-gradient" x1="-808.39" y1="232.42" x2="-689.2" y2="25.98" gradientTransform="translate(-658.58) rotate(-180) scale(1 -1)" gradientUnits="userSpaceOnUse">
      <stop offset=".69" stop-color="#fff"/>
      <stop offset=".97" stop-color="#83c66c"/>
    </linearGradient>
  </defs>
  <g id="Layer_1-2" data-name="Layer 1">
    <rect class="cls-1" width="257.95" height="215.43"/>
    <g>
      <path class="cls-3" d="M192.02,134.97c4.77,4.77,12.51,4.77,17.28,0l23.93-23.93c10.25-10.25,10.25-26.86,0-37.11l-.38-.38,3.66-3.66c8.03-8.03,8.03-21.04,0-29.07-8.03-8.03-21.04-8.03-29.07,0l-25.72,25.72c-13.79,13.79-18.99,36.57-5.83,50.79"/>
      <path class="cls-2" d="M5.16,181.64l62.62-94.33c-6.21-3.79-10.37-10.61-10.37-18.42,0-8.86,5.34-16.46,12.97-19.79-1.01-4.18-1.19-8.67-.29-13.33,2.64-13.52,14.16-23.84,27.88-24.97,16.38-1.34,30.36,10.02,33.19,25.29,15.03,5.6,98.84,42.01,96.61,156.71,0,0,.03,22.62-18.13,22.62H19.95s-24.1-1.58-19.33-23.38c.81-3.72,2.43-7.23,4.54-10.4Z"/>
      <rect x="151.86" y="92.11" width="5.96" height="12.86" rx="2.98" ry="2.98" transform="translate(309.67 197.07) rotate(180)"/>
      <rect x="137.41" y="92.11" width="5.96" height="12.86" rx="2.98" ry="2.98" transform="translate(280.77 197.07) rotate(-180)"/>
      <path d="M148.79,125.23c.24,0,.48-.04.72-.14l15.26-5.94c.78-.3,1.28-1.07,1.26-1.9-.03-.84-.58-1.57-1.38-1.82l-15.26-4.83c-1.04-.33-2.15.25-2.48,1.29-.33,1.04.25,2.15,1.29,2.48l9.92,3.14-10.04,3.9c-1.02.4-1.52,1.54-1.12,2.56.3.78,1.05,1.26,1.84,1.26Z"/>
      <path class="cls-3" d="M65.14,154.07c-3.9,5.51-11.52,6.82-17.03,2.92l-27.63-19.55c-11.83-8.37-14.64-24.75-6.27-36.58l.31-.43-4.23-2.99c-9.27-6.56-11.46-19.38-4.91-28.65,6.56-9.27,19.38-11.46,28.65-4.91l29.7,21.01c15.92,11.26,24.9,32.84,14.32,49.07"/>
    </g>
  </g>
</svg>